#!OML:ASF X:\für Bonn\!DataBase\2005_08_10_Bjorn_Final\c3d\bjorn.ASF
:FULLY-SPECIFIED
:DEGREES
263
root 23.2019 16.8444 -0.57476 25.0514 -63.0929 -338.685
lowerback 67.5742 -0.497962 8.37323
upperback 16.4159 2.47723 0.860533
thorax -2.38664 0.977139 -3.42748
lowerneck -5.89367 -4.2623 8.90457
upperneck -11.2681 -6.27243 0.467914
head -2.91261 -3.65432 -1.3032
rclavicle -6.36111e-014 4.6118e-014
rhumerus 89.0246 10.6952 -44.5447
rradius 1.02534
rwrist 56.5571
rhand -34.5436 29.2117
rfingers 7.12502
rthumb -7.70432 -0.627971
lclavicle -6.36111e-014 4.6118e-014
lhumerus 64.3622 -17.062 99.7554
lradius 8.62697
lwrist -69.2993
lhand -26.7283 -3.65277
lfingers 7.12502
lthumb -0.157639 26.3269
rfemur -88.9397 -19.8525 15.8111
rtibia 71.1795
rfoot -21.2725 5.37722
rtoes -12.1151
lfemur -88.0044 3.36749 -33.5482
ltibia 66.7582
lfoot -13.2773 -9.59751
ltoes -5.47373
264
root 23.1956 16.853 -0.576272 24.9792 -63.1504 -338.63
lowerback 67.4676 -0.396644 8.29226
upperback 16.5027 2.5138 0.888185
thorax -2.29848 0.99124 -3.38042
lowerneck -5.79532 -4.26278 8.88845
upperneck -11.3545 -6.25311 0.545819
head -2.95511 -3.64896 -1.27142
rclavicle 6.36111e-015 3.18055e-014
rhumerus 89.0912 10.6514 -44.1106
rradius 0.765244
rwrist 56.2778
rhand -35.0446 29.5985
rfingers 7.12502
rthumb -8.18785 -0.2229
lclavicle 6.36111e-015 3.18055e-014
lhumerus 64.3895 -17.0891 99.7498
lradius 8.68343
lwrist -69.2028
lhand -26.637 -3.88756
lfingers 7.12502
lthumb -0.0695085 26.0922
rfemur -88.8468 -19.7783 15.7344
rtibia 71.0976
rfoot -21.2702 5.33475
rtoes -12.3553
lfemur -87.901 3.36799 -33.5197
ltibia 66.6666
lfoot -13.3186 -9.46301
ltoes -5.83117
265
root 23.1901 16.8619 -0.577606 24.9349 -63.2206 -338.59
lowerback 67.3398 -0.290098 8.20805
upperback 16.5832 2.55299 0.909726
thorax -2.21851 1.00649 -3.34052
lowerneck -5.6685 -4.2792 8.86212
upperneck -11.4507 -6.25119 0.631449
head -3.00624 -3.65257 -1.23418
rclavicle -3.81667e-014 1.27222e-014
rhumerus 89.1285 10.6133 -43.6848
rradius 0.539627
rwrist 55.906
rhand -35.518 29.945
rfingers 7.12502
rthumb -8.64468 0.142018
lclavicle -3.81667e-014 1.27222e-014
lhumerus 64.3725 -17.139 99.7594
lradius 8.74358
lwrist -69.079
lhand -26.6297 -4.05052
lfingers 7.12502
lthumb -0.0624702 25.9292
rfemur -88.7705 -19.7099 15.6908
rtibia 71.0074
rfoot -21.2443 5.30542
rtoes -12.5266
lfemur -87.8236 3.36595 -33.4779
ltibia 66.5843
lfoot -13.3444 -9.31534
ltoes -5.99973
266
root 23.184 16.871 -0.579093 24.9146 -63.2897 -338.591
lowerback 67.221 -0.202449 8.16633
upperback 16.6506 2.5964 0.901076
thorax -2.14796 1.0287 -3.35305
lowerneck -5.56731 -4.29537 8.88526
upperneck -11.5082 -6.25228 0.722129
head -3.04175 -3.65803 -1.20488
rclavicle -3.18055e-014 -3.97569e-014
rhumerus 89.1069 10.5504 -43.304
rradius 0.320708
rwrist 55.5881
rhand -35.9758 30.2348
rfingers 7.12502
rthumb -9.08647 0.450522
lclavicle -3.18055e-014 -3.97569e-014
lhumerus 64.3506 -17.207 99.7305
lradius 8.79777
lwrist -68.9691
lhand -26.6416 -4.2117
lfingers 7.12502
lthumb -0.0738947 25.768
rfemur -88.6808 -19.6285 15.6552
rtibia 70.9163
rfoot -21.2242 5.2588
rtoes -12.8144
lfemur -87.7396 3.38205 -33.4165
ltibia 66.5053
lfoot -13.3636 -9.21392
ltoes -6.14774
267
root 23.1786 16.8798 -0.5813 24.9295 -63.3615 -338.627
lowerback 67.1033 -0.106723 8.09133
upperback 16.6958 2.63485 0.912229
thorax -2.10664 1.04214 -3.32811
lowerneck -5.44835 -4.30176 8.78024
upperneck -11.5396 -6.2297 0.862874
head -3.06227 -3.64614 -1.13753
rclavicle -3.81667e-014 2.38542e-014
rhumerus 89.0937 10.5629 -42.9028
rradius 0.148412
rwrist 55.2133
rhand -36.4016 30.4467
rfingers 7.12502
rthumb -9.49726 0.680678
lclavicle -3.81667e-014 2.38542e-014
lhumerus 64.2875 -17.2014 99.7329
lradius 8.84573
lwrist -68.8026
lhand -26.7058 -4.3869
lfingers 7.12502
lthumb -0.135967 25.5928
rfemur -88.6042 -19.5278 15.6289
rtibia 70.832
rfoot -21.2129 5.21366
rtoes -12.9522
lfemur -87.6513 3.38862 -33.3159
ltibia 66.428
lfoot -13.4071 -9.0594
ltoes -6.50584
268
root 23.1736 16.888 -0.583667 24.9515 -63.4356 -338.659
lowerback 66.949 -0.0284258 8.04699
upperback 16.7517 2.66609 0.890182
thorax -2.05099 1.05942 -3.35069
lowerneck -5.30159 -4.33006 8.7255
upperneck -11.6048 -6.23426 1.01163
head -3.10291 -3.65188 -1.07448
rclavicle -1.04958e-013 2.70347e-014
rhumerus 89.0317 10.5617 -42.5462
rradius -0.032741
rwrist 54.7988
rhand -36.798 30.5811
rfingers 7.12502
rthumb -9.87976 0.832922
lclavicle -1.04958e-013 2.70347e-014
lhumerus 64.2112 -17.2382 99.6997
lradius 8.8948
lwrist -68.6686
lhand -26.8119 -4.5018
lfingers 7.12502
lthumb -0.238381 25.4778
rfemur -88.5318 -19.425 15.5956
rtibia 70.7427
rfoot -21.1812 5.19417
rtoes -13.049
lfemur -87.5962 3.41478 -33.2422
ltibia 66.3556
lfoot -13.4083 -8.96456
ltoes -6.53123
269
root 23.1682 16.8946 -0.586384 24.9696 -63.5334 -338.688
lowerback 66.7838 0.0539137 8.00177
upperback 16.8129 2.6956 0.838558
thorax -1.98859 1.08008 -3.40552
lowerneck -5.22339 -4.34603 8.72398
upperneck -11.6496 -6.23359 1.13691
head -3.12739 -3.65612 -1.03034
rclavicle 8.5875e-014 2.54444e-014
rhumerus 88.9612 10.5473 -42.2293
rradius -0.223947
rwrist 54.2859
rhand -37.1934 30.6089
rfingers 7.12502
rthumb -10.2612 0.879212
lclavicle 8.5875e-014 2.54444e-014
lhumerus 64.1573 -17.2843 99.6242
lradius 8.9261
lwrist -68.532
lhand -26.8955 -4.57735
lfingers 7.12502
lthumb -0.319199 25.4022
rfemur -88.4765 -19.3159 15.5795
rtibia 70.6602
rfoot -21.1558 5.1496
rtoes -13.3566
lfemur -87.5399 3.45224 -33.1785
ltibia 66.2852
lfoot -13.4691 -8.81158
ltoes -6.88947
270
root 23.1637 16.9044 -0.588779 24.9891 -63.606 -338.717
lowerback 66.6398 0.103937 7.96537
upperback 16.8333 2.70697 0.788837
thorax -1.97198 1.09018 -3.45448
lowerneck -5.129 -4.37082 8.70327
upperneck -11.673 -6.24547 1.23593
head -3.14811 -3.6642 -0.991272
rclavicle 9.54166e-015 0
rhumerus 88.8643 10.5915 -41.9112
rradius -0.358869
rwrist 53.7599
rhand -37.4596 30.4115
rfingers 7.12502
rthumb -10.518 0.694684
lclavicle 9.54166e-015 0
lhumerus 64.0449 -17.2869 99.5713
lradius 8.96616
lwrist -68.3569
lhand -26.976 -4.64602
lfingers 7.12502
lthumb -0.396912 25.3334
rfemur -88.4021 -19.2112 15.5394
rtibia 70.5665
rfoot -21.1348 5.12642
rtoes -13.3445
lfemur -87.4708 3.46029 -33.0804
ltibia 66.2091
lfoot -13.4709 -8.71932
ltoes -6.8302
